<?xml version="1.0" encoding="UTF-8" standalone="no"?>
<!-- Created with Inkscape (http://www.inkscape.org/) -->

<svg
   xmlns:dc="http://purl.org/dc/elements/1.1/"
   xmlns:cc="http://creativecommons.org/ns#"
   xmlns:rdf="http://www.w3.org/1999/02/22-rdf-syntax-ns#"
   xmlns:svg="http://www.w3.org/2000/svg"
   xmlns="http://www.w3.org/2000/svg"
   xmlns:sodipodi="http://sodipodi.sourceforge.net/DTD/sodipodi-0.dtd"
   xmlns:inkscape="http://www.inkscape.org/namespaces/inkscape"
   id="svg2985"
   version="1.1"
   inkscape:version="0.48.4 r9939"
   width="650"
   height="650"
   sodipodi:docname="StarScrollCrest SVG.svg"
   inkscape:export-filename="C:\Users\Stuart\Desktop\Crest 2 2000px.png"
   inkscape:export-xdpi="359.41867"
   inkscape:export-ydpi="359.41867">
  <metadata
     id="metadata2991">
    <rdf:RDF>
      <cc:Work
         rdf:about="">
        <dc:format>image/svg+xml</dc:format>
        <dc:type
           rdf:resource="http://purl.org/dc/dcmitype/StillImage" />
        <dc:title />
      </cc:Work>
    </rdf:RDF>
  </metadata>
  <defs
     id="defs2989" />
  <sodipodi:namedview
     pagecolor="#ffffff"
     bordercolor="#666666"
     borderopacity="1"
     objecttolerance="10"
     gridtolerance="10"
     guidetolerance="10"
     inkscape:pageopacity="0"
     inkscape:pageshadow="2"
     inkscape:window-width="1366"
     inkscape:window-height="706"
     id="namedview2987"
     showgrid="false"
     inkscape:zoom="0.38717816"
     inkscape:cx="511.48721"
     inkscape:cy="405.64553"
     inkscape:window-x="-8"
     inkscape:window-y="-8"
     inkscape:window-maximized="1"
     inkscape:current-layer="svg2985"
     fit-margin-top="0"
     fit-margin-left="0"
     fit-margin-right="0"
     fit-margin-bottom="0" />
  <rect
     style="fill:#0c2577;fill-opacity:1;stroke:#0c2577;stroke-width:1.21539247;stroke-opacity:1"
     id="rect3822"
     width="648.78461"
     height="648.78461"
     x="0.60769624"
     y="0.60769624" />
  <g
     id="g3791"
     style="fill:#ffffff;fill-opacity:1;stroke:#0c2577;stroke-opacity:1"
     transform="translate(77.417198,138.30585)">
    <path
       sodipodi:nodetypes="cscccccccccccccccscccccccccccccccc"
       inkscape:connector-curvature="0"
       id="path2995"
       d="m 128.25583,40.134088 c 4.01063,1.354536 8.59669,4.665564 13.43386,8.830362 4.67461,4.024838 10.5106,8.847027 13.19887,17.487688 l 1.5e-4,37.583332 21.09434,-9.680476 -3.4e-4,-21.494982 c 16.38565,-7.433826 34.47369,-13.754781 53.32299,-16.671913 21.34928,-2.106014 43.68738,-3.265261 62.60264,3.95915 13.06135,5.126708 23.27516,14.027812 31.42718,24.063853 9.357,14.105845 12.94578,30.532638 11.84885,47.475478 0.50798,22.83558 -13.02973,42.53784 -23.13128,51.09135 -11.4832,11.30391 -27.39746,16.78176 -41.75988,20.27063 l -94.3105,0.92685 0,-66.31577 -19.85835,13.85703 -0.77238,216.76347 c -2.2675,16.42864 -4.07579,21.84555 -10.97921,31.20978 -5.02232,4.27207 -8.31382,8.61588 -16.82889,11.73254 -2.1145,0.77394 -5.72493,1.55584 -8.16181,1.97001 2.95891,1.8043 8.52775,3.70452 13.51374,5.10341 9.4999,1.83719 19.95126,-0.11695 30.28293,-11.41402 6.0136,-7.6525 12.57371,-14.51224 12.89585,-32.80603 l -0.0916,-150.73949 59.6676,0.43482 c 38.98302,8.82297 51.62163,39.24071 56.75395,56.12934 15.82325,2.21045 21.62869,0.70391 24.52877,0.28855 -5.36306,-24.0005 -21.28861,-43.82238 -42.68101,-57.16167 39.51574,-7.14716 68.25579,-26.8987 80.8193,-65.57199 3.68678,-20.59426 8.7504,-40.45086 -3.92482,-69.811498 -14.91599,-30.370384 -51.12768,-50.842134 -74.75471,-52.395808 -43.53561,-2.867778 -66.22108,1.196822 -103.84188,17.444292 -4.84675,-6.618765 -11.58422,-12.73709 -22.14721,-13.639617 -7.3824,-0.438125 -14.7648,-0.891467 -22.14721,1.081329 z"
       style="fill:#ffffff;fill-opacity:1;stroke:#0c2577;stroke-width:1px;stroke-linecap:butt;stroke-linejoin:miter;stroke-opacity:1" />
    <path
       sodipodi:nodetypes="cccccccc"
       inkscape:connector-curvature="0"
       id="path3773"
       d="m 366.80998,113.5325 c 1.28503,6.68528 1.49526,13.37057 1.39519,20.05585 l 26.5086,14.64949 c 14.98177,21.91591 42.19449,12.36333 40.80929,-0.87199 0.39637,-12.97637 -11.82545,-19.29823 -24.41581,-9.94073 -10.2735,-13.9743 -7.66666,-25.87939 -1.04639,-31.74056 -7.17614,3.91511 -15.71144,7.48396 -18.83506,20.40465 -11.69362,-6.16058 -16.44279,-8.46313 -24.41582,-12.55671 z"
       style="fill:#ffffff;fill-opacity:1;stroke:#0c2577;stroke-width:1px;stroke-linecap:butt;stroke-linejoin:miter;stroke-opacity:1" />
    <path
       sodipodi:nodetypes="cccc"
       inkscape:connector-curvature="0"
       id="path3775"
       d="m 366.45161,147.52688 -7.52688,21.50538 c 11.59686,3.01931 22.07651,11.62464 29.67742,34.62366 8.15335,-19.50453 3.63439,-43.60891 -22.15054,-56.12904 z"
       style="fill:#ffffff;fill-opacity:1;stroke:#0c2577;stroke-width:1px;stroke-linecap:butt;stroke-linejoin:miter;stroke-opacity:1" />
    <path
       sodipodi:nodetypes="ccccccccc"
       inkscape:connector-curvature="0"
       id="path3777"
       d="m 183.9394,134.54545 c 11.14137,4.09437 22.76074,9.74238 29.0909,26.66667 l 0.30303,33.9394 20.60606,-0.30304 -0.30303,-28.78787 83.03031,-0.30303 c 4.16361,-6.45725 7.04834,-13.34079 8.78788,-20.60606 l -97.87879,-0.60607 c -9.91903,-14.75572 -26.47393,-16.79256 -43.63636,-10 z"
       style="fill:#ffffff;fill-opacity:1;stroke:#0c2577;stroke-width:1px;stroke-linecap:butt;stroke-linejoin:miter;stroke-opacity:1" />
    <path
       sodipodi:nodetypes="cccccccccccc"
       inkscape:connector-curvature="0"
       id="path3779"
       d="m 213.33333,232.42424 0,107.87879 20.30303,3.93939 0,-35.45454 25.45455,-16.36364 c 43.01675,34.33649 100.42453,13.14372 99.39394,-25.75757 1.13368,-15.38403 -32.00506,-29.99141 -33.0303,-0.90909 0.31131,7.80063 3.73882,12.79668 12.12121,13.33333 -11.82719,16.56785 -52.40356,15.27815 -76.66667,-9.39394 l -27.57576,16.9697 0,-54.24243 z"
       style="fill:#ffffff;fill-opacity:1;stroke:#0c2577;stroke-width:1px;stroke-linecap:butt;stroke-linejoin:miter;stroke-opacity:1" />
    <path
       sodipodi:nodetypes="ccccc"
       inkscape:connector-curvature="0"
       id="path3781"
       d="m 183.93939,339.39394 c 25.17482,9.93919 48.81509,20.55712 114.84849,12.42424 l 4.24242,18.48485 c -35.5453,3.88648 -69.08418,10.94098 -119.39394,-8.48485 z"
       style="fill:#ffffff;fill-opacity:1;stroke:#0c2577;stroke-width:1px;stroke-linecap:butt;stroke-linejoin:miter;stroke-opacity:1" />
    <path
       sodipodi:nodetypes="cccccc"
       inkscape:connector-curvature="0"
       id="path3783"
       d="m 213.30049,380.29557 20.19705,1.97044 c -3.87121,80.06235 18.99829,81.17445 37.43842,90.64039 -5.98123,4.3385 -34.28618,18.01069 -55.66502,-25.12315 -17.47425,12.6168 -25.98494,7.30649 -34.48276,1.97044 18.75892,-5.44587 35.71174,-14.9289 32.51231,-69.45812 z"
       style="fill:#ffffff;fill-opacity:1;stroke:#0c2577;stroke-width:1px;stroke-linecap:butt;stroke-linejoin:miter;stroke-opacity:1" />
    <path
       sodipodi:nodetypes="cccccc"
       inkscape:connector-curvature="0"
       id="path3785"
       d="m 301.97044,316.74877 c 8.15609,36.91819 10.79627,117.07383 75.86207,105.41872 18.84996,-8.19109 12.83794,-23.46569 4.43591,-28.08606 -15.81823,-6.71828 -19.82446,2.97571 -20.69207,11.8299 -27.82735,-8.83254 -33.70208,-57.67586 -38.42364,-90.64039 -7.06076,4.76523 -14.12151,3.12389 -21.18227,1.47783 z"
       style="fill:#ffffff;fill-opacity:1;stroke:#0c2577;stroke-width:1px;stroke-linecap:butt;stroke-linejoin:miter;stroke-opacity:1" />
    <path
       sodipodi:nodetypes="ccscccc"
       inkscape:connector-curvature="0"
       id="path3787"
       d="m 336.27451,342.15686 4.16667,18.38236 c 26.63101,-6.71321 48.10781,-24.76629 58.24681,-27.29317 15.40033,-3.83814 30.45381,-0.30171 45.91985,4.00885 -5.96608,-17.18071 -19.60168,-21.57889 -35.29411,-22.54902 3.23172,-12.78001 1.33482,-22.59081 -7.84314,-28.18627 -0.51373,40.28156 -40.6694,39.95432 -65.19608,55.63725 z"
       style="fill:#ffffff;fill-opacity:1;stroke:#0c2577;stroke-width:1px;stroke-linecap:butt;stroke-linejoin:miter;stroke-opacity:1" />
    <path
       sodipodi:nodetypes="cccccccccc"
       inkscape:connector-curvature="0"
       id="path3789"
       d="m 325.4902,117.89216 c -1.20995,-6.78105 -1.9619,-14.78758 -5.63726,-21.568631 -51.66253,-10.612053 -102.88546,-15.06966 -151.96078,10.539221 -57.25109,30.63399 -87.863935,73.56254 -102.696082,123.7745 14.143836,50.07185 41.660182,86.77119 80.637252,112.00981 l 0,-29.65686 c -23.17444,-22.49617 -30.09184,-40.50765 -34.55882,-57.84314 -29.538411,1.2076 -34.573381,-45.46191 0.73529,-47.30392 4.643,-12.5375 0.76605,-35.61398 62.00981,-79.41177 48.60919,-24.43361 99.6008,-23.27634 151.47059,-10.53921 z"
       style="fill:#ffffff;fill-opacity:1;stroke:#0c2577;stroke-width:1px;stroke-linecap:butt;stroke-linejoin:miter;stroke-opacity:1" />
  </g>
  <g
     id="g5356"
     style="fill:#ffffff;fill-opacity:1;stroke:#0c2577;stroke-opacity:1"
     transform="translate(77.417198,138.30585)">
    <path
       sodipodi:nodetypes="ccccccccccc"
       inkscape:connector-curvature="0"
       id="path5291"
       d="m 249.51786,-116.34007 -12.37743,40.93007 -41.9145,0 33.19403,27.145832 L 216.04252,-8.0374996 249.51786,-33.073678 283.27451,-8.037 271.17838,-49.389389 305.77894,-75.41 264.42705,-75.832094 z"
       style="fill:#ffffff;fill-opacity:1;stroke:#0c2577;stroke-width:1px;stroke-linecap:butt;stroke-linejoin:miter;stroke-opacity:1" />
    <path
       sodipodi:nodetypes="ccccccccccc"
       inkscape:connector-curvature="0"
       id="path5291-3"
       d="m 401.67368,-50.492683 -9.22299,31.983151 -31.23242,0 24.7344,21.2120123 -9.223,31.4335027 24.94401,-19.563509 25.15363,19.563899 -9.0134,-32.313151 25.78247,-20.332754 -30.81318,-0.329828 z"
       style="fill:#ffffff;fill-opacity:1;stroke:#0c2577;stroke-width:0.76306224px;stroke-linecap:butt;stroke-linejoin:miter;stroke-opacity:1" />
    <path
       sodipodi:nodetypes="ccccccccccc"
       inkscape:connector-curvature="0"
       id="path5291-3-1"
       d="m 97.489559,-50.777686 -9.22299,31.983151 -31.23242,0 24.7344,21.2120127 -9.223,31.4335023 24.94401,-19.563509 25.153631,19.563899 -9.0134,-32.3131503 25.78247,-20.3327547 -30.81318,-0.329828 z"
       style="fill:#ffffff;fill-opacity:1;stroke:#0c2577;stroke-width:0.76306224px;stroke-linecap:butt;stroke-linejoin:miter;stroke-opacity:1" />
    <path
       sodipodi:nodetypes="ccccccccccc"
       inkscape:connector-curvature="0"
       id="path5291-3-6"
       d="m 15.117511,81.072519 -6.8208478,23.130471 -23.0978892,0 18.2922883,15.3407 -6.8208564,22.73295 L 15.117511,128.12816 33.71984,142.27693 27.053994,118.9078 46.121381,104.20299 23.33354,103.96446 z"
       style="fill:#ffffff;fill-opacity:1;stroke:#0c2577;stroke-width:0.5580523px;stroke-linecap:butt;stroke-linejoin:miter;stroke-opacity:1" />
    <path
       sodipodi:nodetypes="ccccccccccc"
       inkscape:connector-curvature="0"
       id="path5291-3-6-8"
       d="m 484.44371,81.072521 -6.82085,23.130469 -23.09789,0 18.29229,15.3407 -6.82086,22.73295 18.44731,-14.14848 18.60233,14.14877 -6.66585,-23.36913 19.06739,-14.70481 -22.78784,-0.23853 z"
       style="fill:#ffffff;fill-opacity:1;stroke:#0c2577;stroke-width:0.5580523px;stroke-linecap:butt;stroke-linejoin:miter;stroke-opacity:1" />
  </g>
</svg>
